<?xml version="1.0" encoding="utf-8"?>
<!-- Generator: Adobe Illustrator 26.5.0, SVG Export Plug-In . SVG Version: 6.00 Build 0)  -->
<svg version="1.1" id="Слой_1" xmlns="http://www.w3.org/2000/svg" xmlns:xlink="http://www.w3.org/1999/xlink" x="0px" y="0px"
	 viewBox="0 0 512 512" style="enable-background:new 0 0 512 512;" xml:space="preserve">
<style type="text/css">
	.st0{fill:#FFFFFF;}
</style>
<path class="st0" d="M466.7,108.5c17.5-17.5,17.5-45.9,0-63.4s-45.9-17.5-63.4,0L256,192.6L108.5,45.3c-17.5-17.5-45.9-17.5-63.4,0
	s-17.5,45.9,0,63.4L192.6,256L45.3,403.5c-17.5,17.5-17.5,45.9,0,63.4s45.9,17.5,63.4,0L256,319.4l147.5,147.4
	c17.5,17.5,45.9,17.5,63.4,0s17.5-45.9,0-63.4L319.4,256L466.7,108.5z"/>
</svg>
